<svg xmlns="http://www.w3.org/2000/svg" version="1.1" xmlns:xlink="http://www.w3.org/1999/xlink" viewBox="0 0 800 800" style="overflow: hidden; display: block;" width="800" height="800"><defs></defs><g id="two-0" transform="matrix(1 0 0 1 0 0)" opacity="1"></g><path d="M 186.9864404296875 158.1151885986328 Q 186.9864404296875 158.1151885986328 191.54688456041774 173.47213890791926 196.10732869114798 188.8290892172057 195.47407587915845 210.23932971104864 194.8408230671689 231.6495702048916 189.87425393344844 259.4968350697796 184.90768479972797 287.3440999346676 178.48941356314666 318.6982501643893 172.07114232656534 350.05240039411103 165.42269337719267 383.747157654356 158.77424442781998 417.44191491460094 154.13217343778433 443.11537734978515 149.49010244774865 468.7888397849694 145.99130551817387 486.73982960273236 142.49250858859912 504.69081942049525 139.79203733198747 515.8868781414005 137.09156607537582 527.0829368623057 134.87611103107196 534.4772942953048 132.66065598676812 541.8716517283038 131.14655019162143 546.2242392131952 129.63244439647474 550.5768266980866 128.49583760833374 553.2274696776763 127.35923082019275 555.878112657266 127.35423688153476 555.877866533963 127.34924294287677 555.8776204106601 127.34424900421878 555.8773742873573 127.33925506556079 555.8771281640543 126.46879408239495 553.1275680405288 125.59833309922911 550.3780079170032 124.52368374160588 545.813851371983 123.44903438398266 541.2496948269628 122.26759448679286 533.3302404800229 121.08615458960305 525.410786133083 120.81866014973033 513.3245619664478 120.55116570985761 501.2383377998127 122.77702011378621 482.8244633555322 125.0028745177148 464.41058891125164 129.5804995651503 438.5203218730155 134.1581246125858 412.63005483477934 140.7029138479453 378.83267396994984 147.24770308330483 345.03529310512033 153.4553467520332 313.9194972552779 159.66299042076156 282.8037014054355 164.57076728580512 255.74787084471774 169.47854415084868 228.692040284 173.66204815953785 208.75346802607294 177.84555216822702 188.81489576814585 182.40599629895726 173.46504218338933 186.9664404296875 158.1151885986328 186.9764404296875 158.1151885986328 Z" fill="white"></path><path d="M 161.84094736182863 376.95447084524284 Q 161.84094736182863 376.95447084524284 168.5883631568364 370.07990807235666 175.33577895184416 363.2053452994705 181.65722504452276 357.34998342977735 187.97867113720136 351.4946215600842 212.8078885810372 327.2471267582818 237.63710602487302 302.9996319564794 266.6091909352334 276.2199337767714 295.5812758455938 249.44023559706346 328.98736683462977 217.60992941119304 362.39345782366576 185.77962322532258 383.7915352592704 164.7784399933626 405.189612694875 143.77725676140267 418.82696633198765 130.3302331663511 432.4643199691003 116.88320957129952 439.90854241037334 108.93818783811678 447.3527648516463 100.99316610493403 451.8079395451352 95.56924544387695 456.26311423862404 90.14532478281988 458.37012089091166 85.0315308115807 460.4771275431993 79.91773684034149 458.36227387028623 74.96986327280496 456.2474201973732 70.02198970526842 442.1641096232918 67.91041124102387 428.0807990492104 65.79883277677932 409.9463734349255 67.00114670688376 391.8119478206405 68.2034606369882 360.2288036298535 77.67699058317301 328.64565943906643 87.15052052935782 280.62198293153557 110.41802539891455 232.5983064240047 133.68553026847127 188.71468646335603 159.4059794913815 144.83106650270733 185.1264287142917 116.68952418228398 201.74161509309636 88.5479818618606 218.356801471901 64.10580454497386 227.61755350376455 39.66362722808713 236.87830553562807 39.66089384144664 236.87411881883878 39.65816045480615 236.86993210204952 39.655427068165665 236.86574538526025 39.65269368152517 236.86155866847096 58.15193904657889 218.08709432668275 76.6511844116326 199.31262998489456 104.21413023992855 181.12981525560087 131.7770760682245 162.9470005263072 176.46206515458255 136.540344014055 221.14705424094063 110.13368750180281 271.01811407965266 85.83386336100496 320.8891739183647 61.534039220207106 355.3102489151414 51.16945508010267 389.73132391191814 40.80487093999824 410.7321902135691 39.246729646245385 431.73305651521997 37.68858835249254 446.4498704069713 39.696457667636224 461.16668429872254 41.704326982779904 469.69400507687396 46.22410853656983 478.22132585502544 50.743890090359756 482.0777334761666 56.091600984257795 485.9341410973077 61.439311878155834 487.4325282616568 67.19960364016953 488.9309154260058 72.95989540218322 488.5591932266896 76.97177305636475 488.1874710273734 80.98365071054629 487.1474555124183 85.37328219944709 486.10743999746313 89.76291368834791 484.08919568712844 93.82195169819948 482.07095137679374 97.88098970805108 478.74638348738006 102.14865318053214 475.4218155979664 106.4163166530132 470.40932901535734 112.12502891494387 465.3968424327483 117.83374117687453 457.6476678227249 126.16629499232332 449.8984932127014 134.4988488077721 436.2868209294842 148.018467835908 422.67514864626696 161.53808686404392 401.208271294032 182.7374477767737 379.74139394179696 203.93680868950347 346.2893835199925 235.98458382997677 312.83737309818804 268.03235897045005 283.6647442253439 295.218943814469 254.49211535249972 322.405528658488 226.09506963801417 344.3860764320449 197.6980239235286 366.3666242056018 189.28321522876215 370.11466121209884 180.86840653399568 373.8626982185959 171.3592801231929 375.4174620753484 161.85015371239012 376.9722259321009 161.84555053710938 376.9633483886719 Z" fill="white"></path><path d="M 515.7780327636877 225.66262752877626 Q 515.7780327636877 225.66262752877626 509.44470412731386 233.93002997323788 503.11137549093996 242.19743241769953 487.4646017948552 259.9550517155024 471.8178280987704 277.7126710133053 456.25421448314273 291.56219403024613 440.690600867515 305.4117170471869 413.0208419285759 334.46276483785437 385.3510829896368 363.5138126285218 364.2625916677903 388.12176588806227 343.1741003459437 412.72971914760274 325.78624921499846 434.27649769839695 308.3983980840532 455.8232762491912 299.84413350908915 467.0059978776512 291.28986893412514 478.18871950611117 286.0601778561071 486.224166770764 280.8304867780891 494.25961403541686 278.7827428763171 498.95470353690587 276.7349989745452 503.6497930383949 274.0582036358886 499.7377159737354 271.38140829723204 495.82563890907596 278.0152256198886 495.31644326212404 284.64904294254524 494.8072476151721 295.61777707288 495.2456974818266 306.5865112032148 495.684147348481 316.7624275191175 495.9436398146453 326.9383438350203 496.2031322808095 336.7273075136129 497.3048918369633 346.5162711922055 498.4066513931171 354.0532275689859 500.53493251534786 361.59018394576634 502.6632136375786 367.3149882737972 507.8966851823619 373.039792601828 513.1301567271453 374.28128963864276 521.662764569923 375.52278667545755 530.1953724127005 366.8784493506148 542.757491685845 358.2341120257721 555.3196109589895 337.12053465733527 574.7286848470426 316.00695728889843 594.1377587350958 287.5615506054979 618.4089946967339 259.1161439220974 642.680230658372 231.39637062533393 666.154722917363 203.67659732857044 689.629215176354 174.17857844775352 714.8030291503603 144.6805595669366 739.9768431243667 119.37712709621721 754.9165027092608 94.07369462549782 769.8561622941551 94.07034640610672 769.8524488823937 94.06699818671564 769.8487354706324 94.06364996732455 769.8450220588711 94.06030174793345 769.8413086471097 111.6422472668468 746.1131168305983 129.22419278576012 722.384925014087 158.1321759739837 696.2429786536743 187.04015916220726 670.1010322932615 214.57812527033795 646.5005529416246 242.11609137846864 622.9000735899879 270.0208805331579 598.7411395337426 297.92566968784706 574.5822054774974 317.31577541213505 556.5393132331685 336.70588113642305 538.4964209888398 344.70982924666157 532.8922146317498 352.71377735690004 527.2880082746599 348.2338473624832 525.5936698678534 343.75391736806637 523.8993314610469 335.18468850505525 523.0901451354587 326.61545964204413 522.2809588098703 316.26271972207326 522.294179830943 305.9099798021023 522.3074008520157 294.07646550232533 522.1663884949253 282.24295120254834 522.0253761378348 271.7557110586165 520.5598138491487 261.2684709146846 519.0942515604627 257.91589720003606 515.4790823193655 254.5633234853875 511.86391307826824 254.11938833871898 501.82006695357694 253.67545319205044 491.77622082888564 256.8814979773091 486.29369023048355 260.0875427625678 480.81115963208146 265.80301681671756 471.98271849533614 271.51849087086725 463.1542773585909 280.2174124065184 451.65759008474913 288.9163339421696 440.1609028109073 306.4574524281132 418.2612005116165 323.99857091405676 396.3614982123257 345.4284710218842 371.16003127026454 366.8583711297117 345.95856432820335 395.3144361917749 315.89537361027675 423.7705012538382 285.83218289235015 439.6824933844797 272.5080614319236 455.5944855151213 259.18393997149695 475.75727309070396 245.58749739872488 495.92006066628664 231.9910548259528 505.8432917833307 228.81866311147888 515.7665229003748 225.646271397005 515.7722778320312 225.65444946289062 Z" fill="white"></path></svg>